<svg width="140" height="120" viewBox="0 0 140 120" fill="none" xmlns="http://www.w3.org/2000/svg">
<g filter="url(#filter0_d)">
<path fill-rule="evenodd" clip-rule="evenodd" d="M30 14.4C30 6.4471 36.4471 0 44.4 0H95.6C103.553 0 110 6.4471 110 14.4V65.6C110 73.5529 103.553 80 95.6 80H44.4C36.4471 80 30 73.5529 30 65.6V14.4ZM46 26V54.2422C46 56.4513 47.6531 58.2422 49.6923 58.2422C50.5936 58.2422 51.4637 57.8851 52.1387 57.2382L70 40.1211L87.8613 57.2382C88.5363 57.8851 89.4064 58.2422 90.3077 58.2422C92.3469 58.2422 94 56.4513 94 54.2422V26C94 25.0237 93.6704 24.081 93.0732 23.3498C91.7221 21.6951 89.3886 21.5403 87.8613 23.0041L70 40.1211L52.1387 23.0041C50.6114 21.5403 48.2779 21.6951 46.9268 23.3498C46.3296 24.081 46 25.0237 46 26Z" fill="white"/>
</g>
<defs>
<filter id="filter0_d" x="0" y="-20" width="140" height="140" filterUnits="userSpaceOnUse" color-interpolation-filters="sRGB">
<feFlood flood-opacity="0" result="BackgroundImageFix"/>
<feColorMatrix in="SourceAlpha" type="matrix" values="0 0 0 0 0 0 0 0 0 0 0 0 0 0 0 0 0 0 127 0"/>
<feOffset dy="10"/>
<feGaussianBlur stdDeviation="15"/>
<feColorMatrix type="matrix" values="0 0 0 0 0 0 0 0 0 0 0 0 0 0 0 0 0 0 0.07 0"/>
<feBlend mode="normal" in2="BackgroundImageFix" result="effect1_dropShadow"/>
<feBlend mode="normal" in="SourceGraphic" in2="effect1_dropShadow" result="shape"/>
</filter>
</defs>
</svg>
