<svg width="86" height="16" viewBox="0 0 86 16" fill="none" xmlns="http://www.w3.org/2000/svg">
<path fill-rule="evenodd" clip-rule="evenodd" d="M59.897 9.75191L59.2023 10.4311C59.0417 10.5225 58.882 10.6286 58.7227 10.704C58.2401 10.931 57.7494 10.988 57.3133 10.988C56.8493 10.988 56.1218 10.9568 55.3796 10.4007C54.3487 9.64846 53.898 8.35525 53.898 7.22838C53.898 4.89526 55.7313 3.751 57.2268 3.751C57.7494 3.751 58.2862 3.88656 58.7227 4.17241C59.4485 4.66962 59.6362 5.31578 59.7403 5.66182L56.3254 7.09103L55.207 7.18111C55.5691 9.09416 56.8183 10.2068 58.1988 10.2068C58.8884 10.2068 59.4003 9.97354 59.8699 9.73318C59.8699 9.73318 59.9642 9.68235 59.897 9.75191ZM57.8368 5.94677C58.114 5.84242 58.2582 5.75235 58.2582 5.54276C58.2582 4.94164 57.6017 4.24732 56.8183 4.24732C56.238 4.24732 55.1485 4.71555 55.1485 6.34142C55.1485 6.59516 55.1778 6.86539 55.1924 7.13563L57.8368 5.94677ZM52.7568 9.63553C52.7568 10.2201 52.8575 10.3111 53.3349 10.357C53.5837 10.3874 53.8317 10.4007 54.077 10.4311L53.5398 10.7624H50.9798C51.3155 10.3111 51.3732 10.2661 51.3732 9.96552V9.62973L51.3676 0.682538H50.2372L51.3254 0.139392H53.4029C52.9526 0.409627 52.8179 0.574177 52.7602 1.10082L52.7568 9.63553ZM48.7865 4.48946C49.1201 4.77352 49.8162 5.37642 49.8162 6.5198C49.8162 7.63418 49.2097 8.15949 48.598 8.6567C48.4103 8.85247 48.1907 9.06473 48.1907 9.39294C48.1907 9.72605 48.4103 9.90665 48.5683 10.0413L49.093 10.4609C49.731 11.0188 50.3125 11.5303 50.3125 12.5693C50.3125 13.9847 48.9901 15.4121 46.4912 15.4121C44.3862 15.4121 43.3686 14.3736 43.3686 13.2601C43.3686 12.7183 43.629 11.9508 44.4882 11.4251C45.3888 10.8547 46.6087 10.7785 47.2622 10.7339C47.0582 10.4609 46.8253 10.1751 46.8253 9.70866C46.8253 9.45359 46.8993 9.30152 46.9708 9.12226C46.8119 9.13787 46.6518 9.15392 46.5063 9.15392C44.9656 9.15392 44.0948 7.96328 44.0948 6.79003C44.0948 6.09794 44.3996 5.33005 45.0255 4.77352C45.8537 4.06717 46.8412 3.94543 47.626 3.94543H50.6195L49.6888 4.48946H48.7865ZM47.7573 11.17C47.638 11.1539 47.5666 11.1539 47.4228 11.1539C47.291 11.1539 46.5063 11.1834 45.8985 11.3947C45.5769 11.5165 44.6475 11.8763 44.6475 12.9452C44.6475 14.0119 45.6509 14.7811 47.2032 14.7811C48.598 14.7811 49.3384 14.0886 49.3384 13.1562C49.3384 12.3887 48.8593 11.9838 47.7573 11.17ZM48.1748 8.31066C48.5106 7.96328 48.5399 7.48346 48.5399 7.21099C48.5399 6.12871 47.917 4.44309 46.7095 4.44309C46.3328 4.44309 45.9247 4.63885 45.6931 4.94164C45.4473 5.25513 45.3737 5.66182 45.3737 6.0529C45.3737 7.06071 45.9411 8.73207 47.189 8.73207C47.5532 8.73207 47.9449 8.54879 48.1748 8.31066ZM39.7802 10.9568C37.4711 10.9568 36.2356 9.09416 36.2356 7.40765C36.2356 5.43707 37.7888 3.751 39.998 3.751C42.1335 3.751 43.471 5.483 43.471 7.30151C43.471 9.07766 42.149 10.9568 39.7802 10.9568ZM41.5967 9.73943C41.948 9.25782 42.0332 8.6567 42.0332 8.07075C42.0332 6.74544 41.4237 4.21789 39.6222 4.21789C39.1431 4.21789 38.6605 4.41187 38.3127 4.72848C37.7453 5.25513 37.6441 5.91689 37.6441 6.56617C37.6441 8.05291 38.3536 10.5051 40.1142 10.5051C40.6824 10.5051 41.2623 10.2201 41.5967 9.73943ZM32.0493 10.9568C29.7398 10.9568 28.5065 9.09416 28.5065 7.40765C28.5065 5.43707 30.0601 3.751 32.2684 3.751C34.4027 3.751 35.7389 5.483 35.7389 7.30151C35.7389 9.07766 34.4186 10.9568 32.0493 10.9568ZM33.8663 9.73943C34.215 9.25782 34.3019 8.6567 34.3019 8.07075C34.3019 6.74544 33.6907 4.21789 31.8909 4.21789C31.41 4.21789 30.9326 4.41187 30.5839 4.72848C30.0157 5.25513 29.915 5.91689 29.915 6.56617C29.915 8.05291 30.6274 10.5051 32.385 10.5051C32.952 10.5051 33.531 10.2201 33.8663 9.73943ZM27.5831 10.4346L25.6357 10.8966C24.8466 11.0255 24.138 11.1388 23.3877 11.1388C19.6314 11.1388 18.2001 8.27454 18.2001 6.03284C18.2001 3.29526 20.228 0.757009 23.7011 0.757009C24.4359 0.757009 25.1428 0.868938 25.7868 1.05088C26.8074 1.34787 27.2848 1.71398 27.5831 1.92847L26.4518 3.04152L25.9749 3.15211L26.3149 2.59068C25.8543 2.12468 25.0076 1.26448 23.4006 1.26448C21.2521 1.26448 19.6314 2.95635 19.6314 5.42637C19.6314 8.07922 21.482 10.5747 24.4501 10.5747C25.3223 10.5747 25.7713 10.3932 26.1789 10.2237V7.94945L24.1225 8.06406L25.2125 7.45759H28.0984L27.7454 7.80943C27.6503 7.89327 27.6374 7.92181 27.6107 8.03418C27.5965 8.16261 27.5831 8.57108 27.5831 8.71467V10.4346ZM64.0843 9.81613V13.6489H63.3494V3.89593H64.0843V5.00675C64.5629 4.28879 65.4377 3.71978 66.4536 3.71978C68.2758 3.71978 69.503 5.15167 69.503 7.41835C69.503 9.66986 68.2758 11.1316 66.4536 11.1316C65.4945 11.1316 64.6353 10.6193 64.0843 9.81613ZM68.7136 7.41835C68.7136 5.70998 67.8539 4.40697 66.3296 4.40697C65.383 4.40697 64.4777 5.17754 64.0843 5.84956V8.97153C64.4777 9.64489 65.383 10.4436 66.3296 10.4436C67.8539 10.4436 68.7136 9.12939 68.7136 7.41835ZM70.5065 1.20294H71.2409V10.9559H70.5065V1.20294ZM79.4862 13.0184C79.6433 13.0911 79.9115 13.1357 80.0815 13.1357C80.5309 13.1357 80.8439 12.9452 81.125 12.2728L81.6609 11.0148L78.7664 3.89593H79.586L82.069 10.065L84.5279 3.89593H85.3591L81.8288 12.5087C81.4625 13.3961 80.8861 13.8228 80.0944 13.8228C79.8568 13.8228 79.5434 13.7791 79.36 13.7207L79.4862 13.0184ZM77.3398 10.935C77.2907 10.6902 77.2537 10.4743 77.2266 10.2942C77.2042 10.1145 77.1913 9.93073 77.1913 9.74389C76.9395 10.1269 76.5826 10.4458 76.1267 10.6968C75.6704 10.9497 75.237 11.0737 74.6425 11.0737C73.9266 11.0737 73.3708 10.8913 72.9744 10.5211C72.5792 10.1515 72.3803 9.65069 72.3803 9.01702C72.3803 8.38424 72.6683 7.87052 73.2426 7.47766C73.8168 7.08301 74.559 6.8868 75.4776 6.8868H77.1913V6.00965C77.1913 5.50441 77.0251 5.10708 76.6932 4.81901C76.3601 4.53049 75.8926 4.38467 75.2865 4.38467C74.7324 4.38467 74.283 4.518 73.9408 4.77754C73.6016 5.04242 73.4307 5.37063 73.4307 5.76617H72.6786L72.6632 5.72826C72.636 5.19493 72.8715 4.72715 73.3721 4.32313C73.8706 3.91956 74.5237 3.71666 75.3274 3.71666C76.1285 3.71666 76.7768 3.91644 77.2653 4.3151C77.7535 4.70975 77.9984 5.2801 77.9984 6.0257V9.50844C77.9984 9.7586 78.0101 10.0003 78.0402 10.2358C78.0712 10.4716 78.1207 10.7071 78.1866 10.935H77.3398ZM74.7324 10.3802C75.3566 10.3802 75.8052 10.2358 76.2636 9.94991C76.7191 9.66585 77.029 9.29528 77.1913 8.84667V7.49104H75.4694C74.8116 7.49104 74.2671 7.64176 73.8388 7.94589C73.4096 8.24912 73.1922 8.61612 73.1922 9.04288C73.1922 9.44556 73.33 9.76752 73.6037 10.0114C73.8784 10.258 74.2538 10.3802 74.7324 10.3802ZM0.390429 13.6183C0.153934 13.5531 0 13.3127 0 12.9407V0.661379C0 0.316845 0.130338 0.0844826 0.336949 0L6.23069 6.8431L0.390429 13.6183ZM1.20174 13.3577L8.29594 9.24103L6.56805 7.23481L1.20174 13.3577ZM8.3448 4.39054L1.34946 0.330305L6.57828 6.43986L8.3448 4.39054ZM8.81942 4.66602L11.5598 6.2566C12.0787 6.55776 12.0834 7.04322 11.5598 7.34706L8.75009 8.9775L6.91744 6.83616L8.81942 4.66602Z" fill="white"/>
</svg>
